PathFileType	4	(X/Y/Z)	./resultDataOpenSim/trcMotMarkerGrf/sub09/qtm-03-04.trc
DataRate	CameraRate	NumFrames	NumMarkers	Units	OrigDataRate	OrigDataStartFrame	OrigNumFrames
250.000000	250.000000	11	24	m	250.000000	1	469
Frame#	Time	L.Toe.Tip			R.Toe.Tip			L.Ankle.Lat			R.Ankle.Lat			L.Ankle.Med			R.Ankle.Med			L.Heel			R.Heel			L.Knee.Lat			R.Knee.Lat			L.Knee.Med			R.Knee.Med			L.Thigh.Upper			R.Thigh.Upper			L.ASIS			R.ASIS			V.Sacral			L.Acromium			R.Acromium			C7			L.Elbow			R.Elbow			L.Wrist.Lat			R.Wrist.Lat
		X1	Y1	Z1	X2	Y2	Z2	X3	Y3	Z3	X4	Y4	Z4	X5	Y5	Z5	X6	Y6	Z6	X7	Y7	Z7	X8	Y8	Z8	X9	Y9	Z9	X10	Y10	Z10	X11	Y11	Z11	X12	Y12	Z12	X13	Y13	Z13	X14	Y14	Z14	X15	Y15	Z15	X16	Y16	Z16	X17	Y17	Z17	X18	Y18	Z18	X19	Y19	Z19	X20	Y20	Z20	X21	Y21	Z21	X22	Y22	Z22	X23	Y23	Z23	X24	Y24	Z24

1	0	-1.5101006	0.03681997	-0.024382977	-0.94974296	0.086014694	0.099255301	-1.6607658	0.081836086	-0.052572	-1.0998907	0.071519891	0.12460661	-1.6293564	0.098623183	0.038734035	-1.0907721	0.11058886	0.034002556	NaN	NaN	NaN	-1.1526406	0.034201127	0.068522914	-1.5148414	0.47338716	-0.11872629	-1.1475054	0.52826985	0.16915456	-1.5104841	0.47361859	0.0080027089	-1.1496324	0.50814835	0.042063609	-1.3979273	0.87738879	-0.16195968	-1.3573594	0.87417996	0.20749144	-1.2899347	0.94771323	-0.11183571	-1.2785205	0.9541188	0.12885426	-1.4465489	1.0167198	0.020963665	-1.2551928	1.4068258	-0.14236748	-1.2943659	1.4132545	0.18324544	-1.3365175	1.4635746	0.01712441	-1.3161783	1.0347042	-0.20890095	-1.4593	1.0864657	0.25871345	-1.0654378	0.92801417	-0.19557686	-1.346048	0.83959486	0.2873734
2	0.004	-1.5100911	0.036690541	-0.024528201	-0.93227174	0.090027977	0.099783445	-1.6603303	0.082523368	-0.052591077	-1.082553	0.071470726	0.1249108	-1.6290556	0.099308407	0.03868356	-1.0740402	0.11091905	0.034281516	NaN	NaN	NaN	-1.1340931	0.032852321	0.068725612	-1.5118673	0.47329796	-0.11873931	-1.1414585	0.52677073	0.16938146	-1.507779	0.47351533	0.0079783203	-1.1429262	0.50677167	0.042398734	-1.3922115	0.87629919	-0.1616444	-1.3514707	0.87263593	0.20777761	-1.2839423	0.94642799	-0.11162499	-1.2725797	0.95266236	0.12905281	-1.4403079	1.0151006	0.021531231	-1.2491981	1.4054745	-0.14200317	-1.2888562	1.4117544	0.18374509	-1.3307095	1.4621432	0.017157257	-1.3082574	1.0330188	-0.20808782	-1.4534581	1.0846352	0.25849026	-1.0566917	0.92892965	-0.19494535	-1.3406235	0.83786748	0.28785925
3	0.008	-1.510068	0.03659175	-0.024644182	-0.91510367	0.09397669	0.10008534	-1.6599089	0.083246624	-0.052692004	-1.0654331	0.07153049	0.12517715	-1.6286987	0.099989089	0.038604978	-1.0576008	0.11131414	0.034557186	NaN	NaN	NaN	-1.1157971	0.031637071	0.0689675	-1.5087471	0.47319194	-0.11878681	-1.1354102	0.52528319	0.16961437	-1.5048308	0.47342104	0.0079456535	-1.1361712	0.50535645	0.042646683	-1.386455	0.87520048	-0.16132055	-1.3455073	0.87106936	0.20806575	-1.2779338	0.94514791	-0.11141559	-1.2665849	0.95121572	0.1292396	-1.433914	1.0134456	0.022563303	-1.2431911	1.4041115	-0.14159202	-1.2832759	1.4102461	0.18421523	-1.3248449	1.4607223	0.017288313	-1.3004964	1.0313021	-0.20790077	-1.447452	1.0829456	0.25836684	-1.0479898	0.92978933	-0.19433247	-1.3351474	0.83613523	0.28832435
4	0.012	-1.5100262	0.036532837	-0.02472581	-0.89844301	0.09788071	0.10016042	-1.6594987	0.084038057	-0.052887716	-1.0486851	0.071746269	0.12539114	-1.628258	0.10066285	0.038491177	-1.0416043	0.11181454	0.034820856	NaN	NaN	NaN	-1.0978959	0.030634398	0.06929494	-1.5054118	0.47306028	-0.1188726	-1.1292819	0.52380932	0.16985134	-1.5015849	0.47332348	0.0079076173	-1.1293503	0.50390776	0.042791442	-1.3806266	0.87409381	-0.16097858	-1.3394106	0.86947771	0.20835406	-1.2718935	0.94387813	-0.11122059	-1.2604867	0.94978552	0.12941522	-1.42738	1.0117571	0.023977574	-1.2371385	1.402736	-0.14112409	-1.2775795	1.4087295	0.18465769	-1.318826	1.4593384	0.017743864	-1.292872	1.029581	-0.20823919	-1.4410771	1.0813964	0.25836553	-1.0393495	0.9305741	-0.19374589	-1.3295706	0.83440228	0.28876106
5	0.016	-1.5099676	0.036502431	-0.024785752	-0.88242135	0.10178321	0.1001826	-1.6590728	0.084908986	-0.05313913	-1.0324021	0.072121672	0.12557063	-1.6277442	0.10134576	0.038342155	-1.0260959	0.1124368	0.035053827	NaN	NaN	NaN	-1.080458	0.029859463	0.06977158	-1.5018629	0.4729006	-0.11898747	-1.1229679	0.5223497	0.17008595	-1.4981246	0.47319631	0.007875129	-1.1225003	0.50246466	0.042866011	-1.3747268	0.8729861	-0.16061013	-1.3331604	0.86787556	0.20864202	-1.2658105	0.9426178	-0.11105334	-1.2542775	0.94837779	0.12959353	-1.4208678	1.010074	0.025262018	-1.2310111	1.4013626	-0.14062869	-1.2717683	1.4072125	0.18508192	-1.3125737	1.4580115	0.018742068	-1.2852827	1.027904	-0.20863422	-1.4343421	1.0798681	0.25842513	-1.0307785	0.93129144	-0.19318876	-1.3238725	0.83268419	0.28916995
6	0.02	-1.5098956	0.03648382	-0.024836245	-0.86706948	0.10567694	0.10025995	-1.6585982	0.085850129	-0.053412412	-1.016525	0.072698145	0.12576055	-1.6271839	0.10206931	0.038147759	-1.0110723	0.11317918	0.035236984	NaN	NaN	NaN	-1.0635104	0.029294266	0.070433742	-1.4981231	0.472712	-0.11913599	-1.1164289	0.52091404	0.17031576	-1.4945251	0.47302136	0.007859508	-1.115674	0.50105098	0.04289804	-1.3687658	0.87187963	-0.16021188	-1.3267634	0.86627433	0.20893476	-1.2596683	0.94136023	-0.11091266	-1.2479665	0.94700157	0.12979175	-1.4144818	1.0084298	0.026093754	-1.2247981	1.4000084	-0.14014347	-1.2658566	1.4056978	0.18549134	-1.3061364	1.4567185	0.020142314	-1.277674	1.0262874	-0.20882413	-1.4275497	1.0782766	0.25848479	-1.0222753	0.93195579	-0.19265963	-1.3180579	0.83099066	0.28955516
7	0.024	-1.5098129	0.036467136	-0.024883967	-0.8523486	0.1095073	0.1003567	-1.6580575	0.086847017	-0.053702763	-1.0007907	0.073600652	0.12602935	-1.6265732	0.10284783	0.037897099	-0.99654881	0.11401182	0.035363774	NaN	NaN	NaN	-1.0471056	0.02892251	0.07119995	-1.4942091	0.47249021	-0.119325	-1.1097322	0.51951669	0.17054489	-1.4907973	0.47280412	0.0078670967	-1.1089046	0.49965904	0.042897133	-1.3627457	0.87076654	-0.15979091	-1.3202394	0.86467767	0.20923869	-1.2534583	0.94010596	-0.110785	-1.2415544	0.94566239	0.13001975	-1.4081877	1.0068295	0.026578455	-1.2185179	1.3986799	-0.13968808	-1.2598463	1.4041851	0.18589232	-1.2996904	1.4554105	0.021454934	-1.2700534	1.0247257	-0.20881442	-1.4209605	1.0766412	0.25854105	-1.0138434	0.93257799	-0.19215016	-1.3121498	0.82931782	0.28992276
8	0.028	-1.5097207	0.036451531	-0.024933329	-0.83822421	0.11321251	0.10040918	-1.6574475	0.087888818	-0.054021597	-0.98492804	0.074932841	0.1264276	-1.6258707	0.10366642	0.037594844	-0.98256892	0.1148821	0.035437571	NaN	NaN	NaN	-1.0313299	0.028727165	0.071897418	-1.4901069	0.4722218	-0.11953264	-1.1029575	0.51816499	0.17078463	-1.4869035	0.47256318	0.0078966305	-1.1021791	0.49827869	0.042871352	-1.3566568	0.86963242	-0.15935935	-1.3135878	0.86308752	0.20955657	-1.2471826	0.93885688	-0.11065755	-1.2350556	0.9443533	0.13027936	-1.401902	1.0052525	0.026962278	-1.2122011	1.3973724	-0.1392566	-1.2537342	1.402677	0.18629351	-1.2933659	1.4540676	0.022337868	-1.2624523	1.0232135	-0.20870915	-1.4145652	1.0750127	0.25861914	-1.0054968	0.93315509	-0.19165453	-1.3061777	0.82765576	0.29027772
9	0.032	-1.5096197	0.036440573	-0.024987665	-0.82469114	0.1167416	0.10040025	-1.6567689	0.088973381	-0.054379113	-0.9690795	0.076559093	0.12688973	-1.6250547	0.10450486	0.037259261	-0.96913954	0.11575329	0.035467031	NaN	NaN	NaN	-1.016251	0.028665093	0.072412374	-1.4857801	0.4718904	-0.11971045	-1.0960901	0.51686621	0.17104739	-1.4828095	0.47230417	0.0079398396	-1.0954337	0.49693075	0.042841745	-1.3504882	0.86847025	-0.1589205	-1.3067837	0.86150479	0.20988674	-1.2408421	0.93760209	-0.11052813	-1.228502	0.9430643	0.13056845	-1.3955662	1.0036723	0.027386324	-1.205861	1.3960785	-0.13882121	-1.247534	1.4011804	0.18670149	-1.2871508	1.4527117	0.02284966	-1.2548918	1.0217479	-0.20858101	-1.4082279	1.0734108	0.25873156	-0.99725904	0.93367541	-0.19117827	-1.300166	0.82599973	0.29062413
10	0.036	-1.5095115	0.036437057	-0.025049128	-0.81174878	0.1200437	0.10032414	-1.6560275	0.090113372	-0.054779661	-0.95384662	0.07809795	0.12722656	-1.624153	0.10536537	0.036899347	-0.95616937	0.11663046	0.035472112	NaN	NaN	NaN	-1.0018972	0.028680328	0.07274184	-1.4812063	0.47149594	-0.11981489	-1.0890456	0.5156433	0.17132991	-1.4785261	0.47201091	0.0079856329	-1.0885959	0.49566113	0.0428375	-1.3442375	0.86728466	-0.1584666	-1.2998164	0.85992777	0.21022789	-1.2344335	0.93632981	-0.11039862	-1.2219017	0.94179041	0.13088258	-1.3891501	1.0020907	0.027875555	-1.1994905	1.394795	-0.1383526	-1.241273	1.3997016	0.18712093	-1.2809683	1.4513673	0.02321486	-1.2473779	1.0203303	-0.20845281	-1.4018498	1.0718269	0.25887405	-0.98913942	0.93413645	-0.19072706	-1.2941231	0.82435444	0.29096376
11	0.04	-1.5093965	0.036440133	-0.025117735	-0.79937294	0.12303733	0.10013857	-1.6552397	0.091324656	-0.055223124	-0.93974797	0.079230919	0.127288	-1.6232076	0.10626863	0.036502666	-0.94356674	0.11751542	0.035467089	NaN	NaN	NaN	-0.98828472	0.028737642	0.072904286	-1.4763658	0.47106565	-0.11981826	-1.0817743	0.51453198	0.17160693	-1.4740613	0.47166334	0.008024143	-1.0816594	0.49450469	0.042874709	-1.3379088	0.86608405	-0.15799143	-1.2927102	0.85835724	0.21058356	-1.2279497	0.93504283	-0.11026317	-1.215237	0.94053202	0.13121924	-1.3826439	1.0005424	0.028410525	-1.1930927	1.3935233	-0.13784556	-1.2349613	1.3982442	0.18755318	-1.2747634	1.4500384	0.023584199	-1.2399144	1.0189678	-0.2083417	-1.395394	1.0702586	0.25905171	-0.98108922	0.93454795	-0.19028271	-1.2880361	0.82273019	0.29129424
